Disc Title:     Smurfs 2, The - Blu-ray™
Disc Label:     The.Smurfs.2.2013.MULTi.COMPLETE.BLURAY-SharpHD
Disc Size:      35,891,906,323 bytes
Protection:     AACS
Extras:         BD-Java
BDInfo:         0.7.5.5

Notes:          

BDINFO HOME:
  Cinema Squid (old)
    http://www.cinemasquid.com/blu-ray/tools/bdinfo
  UniqProject GitHub (new)
   https://github.com/UniqProject/BDInfo

INCLUDES FORUMS REPORT FOR:
  AVS Forum Blu-ray Audio and Video Specifications Thread
    http://www.avsforum.com/avs-vb/showthread.php?t=1155731


********************
PLAYLIST: 00001.MPLS
********************

<--- BEGIN FORUMS PASTE --->
[code]
                                                                                                                Total   Video                                             
Title                                                           Codec   Length  Movie Size      Disc Size       Bitrate Bitrate Main Audio Track                          Secondary Audio Track
-----                                                           ------  ------- --------------  --------------  ------- ------- ------------------                        ---------------------
00001.MPLS                                                      AVC     1:44:54 26,523,426,816  35,891,906,323  33.71   23.47   DTS-HD Master 5.1 2266Kbps (48kHz/16-bit) 
[/code]

[code]

DISC INFO:

Disc Title:     Smurfs 2, The - Blu-ray™
Disc Label:     The.Smurfs.2.2013.MULTi.COMPLETE.BLURAY-SharpHD
Disc Size:      35,891,906,323 bytes
Protection:     AACS
Extras:         BD-Java
BDInfo:         0.7.5.5

PLAYLIST REPORT:

Name:                   00001.MPLS
Length:                 1:44:54.287 (h:m:s.ms)
Size:                   26,523,426,816 bytes
Total Bitrate:          33.71 Mbps

VIDEO:

Codec                   Bitrate             Description     
-----                   -------             -----------     
MPEG-4 AVC Video        23468 kbps          1080p / 23.976 fps / 16:9 / High Profile 4.1

AUDIO:

Codec                           Language        Bitrate         Description     
-----                           --------        -------         -----------     
DTS-HD Master Audio             English         2266 kbps       5.1 / 48 kHz /  2266 kbps / 16-bit (DTS Core: 5.1 / 48 kHz /  1509 kbps / 16-bit)
Dolby Digital Audio             Danish          640 kbps        5.1 / 48 kHz /   640 kbps / DN -31dB
Dolby Digital Audio             Finnish         640 kbps        5.1 / 48 kHz /   640 kbps / DN -31dB
DTS-HD Master Audio             German          2270 kbps       5.1 / 48 kHz /  2270 kbps / 16-bit (DTS Core: 5.1 / 48 kHz /  1509 kbps / 16-bit)
Dolby Digital Audio             Norwegian       640 kbps        5.1 / 48 kHz /   640 kbps / DN -31dB
Dolby Digital Audio             Swedish         640 kbps        5.1 / 48 kHz /   640 kbps / DN -31dB
Dolby Digital Audio             Turkish         640 kbps        5.1 / 48 kHz /   640 kbps / DN -31dB

SUBTITLES:

Codec                           Language        Bitrate         Description     
-----                           --------        -------         -----------     
Presentation Graphics           English         45.011 kbps                     
Presentation Graphics           Danish          44.402 kbps                     
Presentation Graphics           Finnish         42.252 kbps                     
Presentation Graphics           German          49.277 kbps                     
Presentation Graphics           Norwegian       35.124 kbps                     
Presentation Graphics           Swedish         36.787 kbps                     
Presentation Graphics           Turkish         40.283 kbps                     

FILES:

Name            Time In         Length          Size            Total Bitrate   
----            -------         ------          ----            -------------   
01023.M2TS      0:00:00.000     0:01:41.017     407,021,568     32,234          
01024.M2TS      0:01:41.017     0:03:59.322     982,050,816     32,828          
01025.M2TS      0:05:40.339     0:00:41.166     169,334,784     32,908          
01026.M2TS      0:06:21.506     1:03:47.323     15,822,483,456  33,073          
01027.M2TS      1:10:08.829     0:00:04.421     17,326,080      31,352          
01028.M2TS      1:10:13.250     0:25:45.627     6,423,681,024   33,248          
01029.M2TS      1:35:58.878     0:00:13.221     55,185,408      33,391          
01030.M2TS      1:36:12.099     0:08:42.188     2,646,343,680   40,542          

CHAPTERS:

Number          Time In         Length          Avg Video Rate  Max 1-Sec Rate  Max 1-Sec Time  Max 5-Sec Rate  Max 5-Sec Time  Max 10Sec Rate  Max 10Sec Time  Avg Frame Size  Max Frame Size  Max Frame Time  
------          -------         ------          --------------  --------------  --------------  --------------  --------------  --------------  --------------  --------------  --------------  --------------  
1               0:00:00.000     0:05:00.133     23,009 kbps     43,580 kbps     00:00:33.491    31,059 kbps     00:00:55.764    29,215 kbps     00:00:52.886    119,939 bytes   778,054 bytes   00:01:34.094    
2               0:05:00.133     0:06:12.622     23,519 kbps     38,429 kbps     00:06:07.575    29,856 kbps     00:09:47.378    28,326 kbps     00:09:46.877    122,616 bytes   743,119 bytes   00:09:58.556    
3               0:11:12.755     0:07:01.337     23,161 kbps     43,091 kbps     00:16:16.600    32,190 kbps     00:15:54.662    30,391 kbps     00:15:53.619    120,748 bytes   665,585 bytes   00:11:35.152    
4               0:18:14.092     0:05:04.429     22,943 kbps     39,356 kbps     00:18:34.279    28,545 kbps     00:19:11.859    27,521 kbps     00:19:11.984    119,615 bytes   609,953 bytes   00:18:14.927    
5               0:23:18.522     0:04:36.067     23,134 kbps     36,379 kbps     00:25:00.206    27,117 kbps     00:24:52.824    25,294 kbps     00:24:52.198    120,609 bytes   634,406 bytes   00:26:19.202    
6               0:27:54.589     0:06:30.890     22,489 kbps     34,425 kbps     00:32:06.090    28,934 kbps     00:27:54.964    26,666 kbps     00:27:54.589    117,249 bytes   741,057 bytes   00:30:58.106    
7               0:34:25.480     0:06:43.861     22,428 kbps     44,153 kbps     00:37:53.145    27,913 kbps     00:37:31.874    27,023 kbps     00:37:35.211    116,927 bytes   732,647 bytes   00:34:49.545    
8               0:41:09.341     0:05:01.092     23,163 kbps     33,647 kbps     00:43:54.298    27,699 kbps     00:44:59.405    26,121 kbps     00:44:54.400    120,760 bytes   706,207 bytes   00:42:20.788    
9               0:46:10.434     0:04:48.663     23,535 kbps     37,575 kbps     00:46:48.513    28,342 kbps     00:46:53.310    26,697 kbps     00:46:48.597    122,700 bytes   773,759 bytes   00:46:49.389    
10              0:50:59.097     0:05:48.765     22,211 kbps     34,499 kbps     00:55:53.641    25,392 kbps     00:56:07.447    24,821 kbps     00:56:02.567    115,800 bytes   623,728 bytes   00:54:21.049    
11              0:56:47.862     0:05:46.012     22,421 kbps     34,188 kbps     01:02:22.905    25,899 kbps     01:02:19.444    24,520 kbps     01:02:14.355    116,891 bytes   612,777 bytes   00:57:03.211    
12              1:02:33.875     0:04:32.897     22,603 kbps     34,446 kbps     01:02:52.768    26,753 kbps     01:02:57.690    25,433 kbps     01:02:52.768    117,844 bytes   666,749 bytes   01:03:06.449    
13              1:07:06.772     0:07:03.422     22,643 kbps     38,575 kbps     01:08:34.276    27,878 kbps     01:09:27.162    25,761 kbps     01:07:28.127    118,052 bytes   594,329 bytes   01:07:07.565    
14              1:14:10.195     0:06:55.623     22,748 kbps     32,029 kbps     01:19:25.927    25,212 kbps     01:18:18.610    24,309 kbps     01:18:14.523    118,600 bytes   656,861 bytes   01:15:34.947    
15              1:21:05.819     0:07:18.771     23,012 kbps     38,736 kbps     01:22:46.836    31,841 kbps     01:27:48.680    30,173 kbps     01:27:46.552    119,972 bytes   675,995 bytes   01:22:47.337    
16              1:28:24.590     0:16:29.697     26,766 kbps     44,294 kbps     01:36:21.984    33,261 kbps     01:31:16.971    31,047 kbps     01:44:35.143    139,551 bytes   735,022 bytes   01:31:15.678    

STREAM DIAGNOSTICS:

File            PID             Type            Codec           Language                Seconds                 Bitrate                 Bytes           Packets         
----            ---             ----            -----           --------                --------------          --------------          -------------   -----           
01023.M2TS      4113 (0x1011)   0x1B            AVC                                     100.934                 22,432                  283,016,759     1,539,602       
01023.M2TS      4352 (0x1100)   0x86            DTS-HD MA       eng (English)           100.934                 2,171                   27,388,688      164,559         
01023.M2TS      4353 (0x1101)   0x81            AC3             dan (Danish)            100.934                 641                     8,081,920       47,355          
01023.M2TS      4354 (0x1102)   0x81            AC3             fin (Finnish)           100.934                 641                     8,081,920       47,355          
01023.M2TS      4355 (0x1103)   0x86            DTS-HD MA       deu (German)            100.934                 2,187                   27,597,660      165,058         
01023.M2TS      4356 (0x1104)   0x81            AC3             nor (Norwegian)         100.934                 641                     8,081,920       47,355          
01023.M2TS      4357 (0x1105)   0x81            AC3             swe (Swedish)           100.934                 641                     8,081,920       47,355          
01023.M2TS      4358 (0x1106)   0x81            AC3             tur (Turkish)           100.934                 641                     8,081,920       47,355          
01023.M2TS      4608 (0x1200)   0x90            PGS             eng (English)           100.934                 19                      244,454         1,416           
01023.M2TS      4609 (0x1201)   0x90            PGS             dan (Danish)            100.934                 21                      258,731         1,503           
01023.M2TS      4610 (0x1202)   0x90            PGS             fin (Finnish)           100.934                 22                      273,591         1,580           
01023.M2TS      4611 (0x1203)   0x90            PGS             deu (German)            100.934                 23                      285,493         1,646           
01023.M2TS      4612 (0x1204)   0x90            PGS             nor (Norwegian)         100.934                 21                      264,153         1,530           
01023.M2TS      4613 (0x1205)   0x90            PGS             swe (Swedish)           100.934                 18                      226,938         1,314           
01023.M2TS      4614 (0x1206)   0x90            PGS             tur (Turkish)           100.934                 21                      260,589         1,510           
01024.M2TS      4113 (0x1011)   0x1B            AVC                                     239.239                 22,648                  677,286,563     3,684,313       
01024.M2TS      4352 (0x1100)   0x86            DTS-HD MA       eng (English)           239.239                 2,251                   67,319,940      404,170         
01024.M2TS      4353 (0x1101)   0x81            AC3             dan (Danish)            239.239                 640                     19,146,240      112,185         
01024.M2TS      4354 (0x1102)   0x81            AC3             fin (Finnish)           239.239                 640                     19,146,240      112,185         
01024.M2TS      4355 (0x1103)   0x86            DTS-HD MA       deu (German)            239.239                 2,249                   67,249,072      403,149         
01024.M2TS      4356 (0x1104)   0x81            AC3             nor (Norwegian)         239.239                 640                     19,146,240      112,185         
01024.M2TS      4357 (0x1105)   0x81            AC3             swe (Swedish)           239.239                 640                     19,146,240      112,185         
01024.M2TS      4358 (0x1106)   0x81            AC3             tur (Turkish)           239.239                 640                     19,146,240      112,185         
01024.M2TS      4608 (0x1200)   0x90            PGS             eng (English)           239.239                 46                      1,373,580       7,947           
01024.M2TS      4609 (0x1201)   0x90            PGS             dan (Danish)            239.239                 46                      1,386,626       8,028           
01024.M2TS      4610 (0x1202)   0x90            PGS             fin (Finnish)           239.239                 45                      1,340,061       7,752           
01024.M2TS      4611 (0x1203)   0x90            PGS             deu (German)            239.239                 53                      1,585,819       9,108           
01024.M2TS      4612 (0x1204)   0x90            PGS             nor (Norwegian)         239.239                 39                      1,152,139       6,748           
01024.M2TS      4613 (0x1205)   0x90            PGS             swe (Swedish)           239.239                 41                      1,229,173       7,080           
01024.M2TS      4614 (0x1206)   0x90            PGS             tur (Turkish)           239.239                 44                      1,318,725       7,592           
01025.M2TS      4113 (0x1011)   0x1B            AVC                                     41.041                  22,886                  117,409,959     638,683         
01025.M2TS      4352 (0x1100)   0x86            DTS-HD MA       eng (English)           41.041                  2,180                   11,181,324      67,621          
01025.M2TS      4353 (0x1101)   0x81            AC3             dan (Danish)            41.041                  642                     3,294,720       19,305          
01025.M2TS      4354 (0x1102)   0x81            AC3             fin (Finnish)           41.041                  642                     3,294,720       19,305          
01025.M2TS      4355 (0x1103)   0x86            DTS-HD MA       deu (German)            41.041                  2,188                   11,225,660      67,754          
01025.M2TS      4356 (0x1104)   0x81            AC3             nor (Norwegian)         41.041                  642                     3,294,720       19,305          
01025.M2TS      4357 (0x1105)   0x81            AC3             swe (Swedish)           41.041                  642                     3,294,720       19,305          
01025.M2TS      4358 (0x1106)   0x81            AC3             tur (Turkish)           41.041                  642                     3,294,720       19,305          
01025.M2TS      4608 (0x1200)   0x90            PGS             eng (English)           41.041                  47                      240,294         1,373           
01025.M2TS      4609 (0x1201)   0x90            PGS             dan (Danish)            41.041                  51                      263,871         1,515           
01025.M2TS      4610 (0x1202)   0x90            PGS             fin (Finnish)           41.041                  52                      268,364         1,543           
01025.M2TS      4611 (0x1203)   0x90            PGS             deu (German)            41.041                  62                      316,432         1,803           
01025.M2TS      4612 (0x1204)   0x90            PGS             nor (Norwegian)         41.041                  40                      207,102         1,195           
01025.M2TS      4613 (0x1205)   0x90            PGS             swe (Swedish)           41.041                  41                      210,453         1,214           
01025.M2TS      4614 (0x1206)   0x90            PGS             tur (Turkish)           41.041                  46                      234,791         1,347           
01026.M2TS      4113 (0x1011)   0x1B            AVC                                     3827.198                22,900                  10,955,137,926  59,592,956      
01026.M2TS      4352 (0x1100)   0x86            DTS-HD MA       eng (English)           3827.198                2,221                   1,062,574,416   6,392,886       
01026.M2TS      4353 (0x1101)   0x81            AC3             dan (Danish)            3827.198                640                     306,186,240     1,794,060       
01026.M2TS      4354 (0x1102)   0x81            AC3             fin (Finnish)           3827.198                640                     306,186,240     1,794,060       
01026.M2TS      4355 (0x1103)   0x86            DTS-HD MA       deu (German)            3827.198                2,222                   1,063,142,940   6,385,480       
01026.M2TS      4356 (0x1104)   0x81            AC3             nor (Norwegian)         3827.198                640                     306,186,240     1,794,060       
01026.M2TS      4357 (0x1105)   0x81            AC3             swe (Swedish)           3827.198                640                     306,186,240     1,794,060       
01026.M2TS      4358 (0x1106)   0x81            AC3             tur (Turkish)           3827.198                640                     306,186,240     1,794,060       
01026.M2TS      4608 (0x1200)   0x90            PGS             eng (English)           3827.198                53                      25,215,411      145,611         
01026.M2TS      4609 (0x1201)   0x90            PGS             dan (Danish)            3827.198                52                      24,646,763      142,576         
01026.M2TS      4610 (0x1202)   0x90            PGS             fin (Finnish)           3827.198                49                      23,390,072      135,700         
01026.M2TS      4611 (0x1203)   0x90            PGS             deu (German)            3827.198                57                      27,288,655      156,909         
01026.M2TS      4612 (0x1204)   0x90            PGS             nor (Norwegian)         3827.198                40                      19,156,039      112,547         
01026.M2TS      4613 (0x1205)   0x90            PGS             swe (Swedish)           3827.198                42                      20,141,512      116,346         
01026.M2TS      4614 (0x1206)   0x90            PGS             tur (Turkish)           3827.198                47                      22,314,208      129,216         
01027.M2TS      4113 (0x1011)   0x1B            AVC                                     4.338                   20,273                  10,992,232      59,802          
01027.M2TS      4352 (0x1100)   0x86            DTS-HD MA       eng (English)           4.338                   2,885                   1,564,084       9,317           
01027.M2TS      4353 (0x1101)   0x81            AC3             dan (Danish)            4.338                   656                     355,840         2,085           
01027.M2TS      4354 (0x1102)   0x81            AC3             fin (Finnish)           4.338                   656                     355,840         2,085           
01027.M2TS      4355 (0x1103)   0x86            DTS-HD MA       deu (German)            4.338                   2,920                   1,583,392       9,417           
01027.M2TS      4356 (0x1104)   0x81            AC3             nor (Norwegian)         4.338                   656                     355,840         2,085           
01027.M2TS      4357 (0x1105)   0x81            AC3             swe (Swedish)           4.338                   656                     355,840         2,085           
01027.M2TS      4358 (0x1106)   0x81            AC3             tur (Turkish)           4.338                   656                     355,840         2,085           
01027.M2TS      4608 (0x1200)   0x90            PGS             eng (English)           4.338                   0                       70              7               
01027.M2TS      4609 (0x1201)   0x90            PGS             dan (Danish)            4.338                   58                      31,681          186             
01027.M2TS      4610 (0x1202)   0x90            PGS             fin (Finnish)           4.338                   67                      36,305          211             
01027.M2TS      4611 (0x1203)   0x90            PGS             deu (German)            4.338                   70                      37,890          219             
01027.M2TS      4612 (0x1204)   0x90            PGS             nor (Norwegian)         4.338                   42                      22,989          136             
01027.M2TS      4613 (0x1205)   0x90            PGS             swe (Swedish)           4.338                   48                      26,208          156             
01027.M2TS      4614 (0x1206)   0x90            PGS             tur (Turkish)           4.338                   62                      33,407          194             
01028.M2TS      4113 (0x1011)   0x1B            AVC                                     1545.544                23,016                  4,446,488,054   24,187,484      
01028.M2TS      4352 (0x1100)   0x86            DTS-HD MA       eng (English)           1545.544                2,282                   440,908,684     2,644,897       
01028.M2TS      4353 (0x1101)   0x81            AC3             dan (Danish)            1545.544                640                     123,650,560     724,515         
01028.M2TS      4354 (0x1102)   0x81            AC3             fin (Finnish)           1545.544                640                     123,650,560     724,515         
01028.M2TS      4355 (0x1103)   0x86            DTS-HD MA       deu (German)            1545.544                2,286                   441,621,124     2,638,896       
01028.M2TS      4356 (0x1104)   0x81            AC3             nor (Norwegian)         1545.544                640                     123,650,560     724,515         
01028.M2TS      4357 (0x1105)   0x81            AC3             swe (Swedish)           1545.544                640                     123,650,560     724,515         
01028.M2TS      4358 (0x1106)   0x81            AC3             tur (Turkish)           1545.544                640                     123,650,560     724,515         
01028.M2TS      4608 (0x1200)   0x90            PGS             eng (English)           1545.544                42                      8,020,654       46,786          
01028.M2TS      4609 (0x1201)   0x90            PGS             dan (Danish)            1545.544                41                      8,016,560       46,777          
01028.M2TS      4610 (0x1202)   0x90            PGS             fin (Finnish)           1545.544                40                      7,687,794       44,980          
01028.M2TS      4611 (0x1203)   0x90            PGS             deu (German)            1545.544                46                      8,928,751       51,725          
01028.M2TS      4612 (0x1204)   0x90            PGS             nor (Norwegian)         1545.544                34                      6,582,296       38,707          
01028.M2TS      4613 (0x1205)   0x90            PGS             swe (Swedish)           1545.544                36                      6,858,701       39,709          
01028.M2TS      4614 (0x1206)   0x90            PGS             tur (Turkish)           1545.544                38                      7,263,799       42,337          
01029.M2TS      4113 (0x1011)   0x1B            AVC                                     13.138                  22,447                  36,864,610      200,536         
01029.M2TS      4352 (0x1100)   0x86            DTS-HD MA       eng (English)           13.138                  2,732                   4,485,872       26,504          
01029.M2TS      4353 (0x1101)   0x81            AC3             dan (Danish)            13.138                  645                     1,059,840       6,210           
01029.M2TS      4354 (0x1102)   0x81            AC3             fin (Finnish)           13.138                  645                     1,059,840       6,210           
01029.M2TS      4355 (0x1103)   0x86            DTS-HD MA       deu (German)            13.138                  2,645                   4,343,624       25,703          
01029.M2TS      4356 (0x1104)   0x81            AC3             nor (Norwegian)         13.138                  645                     1,059,840       6,210           
01029.M2TS      4357 (0x1105)   0x81            AC3             swe (Swedish)           13.138                  645                     1,059,840       6,210           
01029.M2TS      4358 (0x1106)   0x81            AC3             tur (Turkish)           13.138                  645                     1,059,840       6,210           
01029.M2TS      4608 (0x1200)   0x90            PGS             eng (English)           13.138                  55                      90,316          511             
01029.M2TS      4609 (0x1201)   0x90            PGS             dan (Danish)            13.138                  54                      89,444          514             
01029.M2TS      4610 (0x1202)   0x90            PGS             fin (Finnish)           13.138                  42                      68,878          403             
01029.M2TS      4611 (0x1203)   0x90            PGS             deu (German)            13.138                  58                      94,891          544             
01029.M2TS      4612 (0x1204)   0x90            PGS             nor (Norwegian)         13.138                  36                      59,780          353             
01029.M2TS      4613 (0x1205)   0x90            PGS             swe (Swedish)           13.138                  40                      65,468          383             
01029.M2TS      4614 (0x1206)   0x90            PGS             tur (Turkish)           13.138                  50                      81,878          471             
01030.M2TS      4113 (0x1011)   0x1B            AVC                                     522.063                 29,689                  1,937,439,962   10,536,908      
01030.M2TS      4352 (0x1100)   0x86            DTS-HD MA       eng (English)           522.063                 2,560                   167,062,164     987,590         
01030.M2TS      4353 (0x1101)   0x81            AC3             dan (Danish)            522.063                 640                     41,776,640      244,785         
01030.M2TS      4354 (0x1102)   0x81            AC3             fin (Finnish)           522.063                 640                     41,776,640      244,785         
01030.M2TS      4355 (0x1103)   0x86            DTS-HD MA       deu (German)            522.063                 2,597                   169,498,032     1,008,899       
01030.M2TS      4356 (0x1104)   0x81            AC3             nor (Norwegian)         522.063                 640                     41,776,640      244,785         
01030.M2TS      4357 (0x1105)   0x81            AC3             swe (Swedish)           522.063                 640                     41,776,640      244,785         
01030.M2TS      4358 (0x1106)   0x81            AC3             tur (Turkish)           522.063                 640                     41,776,640      244,785         
01030.M2TS      4608 (0x1200)   0x90            PGS             eng (English)           522.063                 4                       228,902         1,292           
01030.M2TS      4609 (0x1201)   0x90            PGS             dan (Danish)            522.063                 4                       241,252         1,367           
01030.M2TS      4610 (0x1202)   0x90            PGS             fin (Finnish)           522.063                 3                       178,146         1,016           
01030.M2TS      4611 (0x1203)   0x90            PGS             deu (German)            522.063                 4                       232,459         1,313           
01030.M2TS      4612 (0x1204)   0x90            PGS             nor (Norwegian)         522.063                 3                       190,414         1,090           
01030.M2TS      4613 (0x1205)   0x90            PGS             swe (Swedish)           522.063                 3                       185,080         1,062           
01030.M2TS      4614 (0x1206)   0x90            PGS             tur (Turkish)           522.063                 3                       186,743         1,067           

[/code]
<---- END FORUMS PASTE ---->

QUICK SUMMARY:

Disc Title: Smurfs 2, The - Blu-ray™
Disc Label: The.Smurfs.2.2013.MULTi.COMPLETE.BLURAY-SharpHD
Disc Size: 35,891,906,323 bytes
Protection: AACS
Playlist: 00001.MPLS
Size: 26,523,426,816 bytes
Length: 1:44:54.287
Total Bitrate: 33.71 Mbps
Video: MPEG-4 AVC Video / 23468 kbps / 1080p / 23.976 fps / 16:9 / High Profile 4.1
Audio: English / DTS-HD Master Audio / 5.1 / 48 kHz /  2266 kbps / 16-bit (DTS Core: 5.1 / 48 kHz /  1509 kbps / 16-bit)
Audio: Danish / Dolby Digital Audio / 5.1 / 48 kHz /   640 kbps / DN -31dB
Audio: Finnish / Dolby Digital Audio / 5.1 / 48 kHz /   640 kbps / DN -31dB
Audio: German / DTS-HD Master Audio / 5.1 / 48 kHz /  2270 kbps / 16-bit (DTS Core: 5.1 / 48 kHz /  1509 kbps / 16-bit)
Audio: Norwegian / Dolby Digital Audio / 5.1 / 48 kHz /   640 kbps / DN -31dB
Audio: Swedish / Dolby Digital Audio / 5.1 / 48 kHz /   640 kbps / DN -31dB
Audio: Turkish / Dolby Digital Audio / 5.1 / 48 kHz /   640 kbps / DN -31dB
Subtitle: English / 45.011 kbps
Subtitle: Danish / 44.402 kbps
Subtitle: Finnish / 42.252 kbps
Subtitle: German / 49.277 kbps
Subtitle: Norwegian / 35.124 kbps
Subtitle: Swedish / 36.787 kbps
Subtitle: Turkish / 40.283 kbps


********************
PLAYLIST: 00002.MPLS
********************

<--- BEGIN FORUMS PASTE --->
[code]
                                                                                                                Total   Video                                             
Title                                                           Codec   Length  Movie Size      Disc Size       Bitrate Bitrate Main Audio Track                          Secondary Audio Track
-----                                                           ------  ------- --------------  --------------  ------- ------- ------------------                        ---------------------
00002.MPLS                                                      AVC     1:44:54 26,523,715,584  35,891,906,323  33.71   23.47   DTS-HD Master 5.1 2266Kbps (48kHz/16-bit) 
[/code]

[code]

DISC INFO:

Disc Title:     Smurfs 2, The - Blu-ray™
Disc Label:     The.Smurfs.2.2013.MULTi.COMPLETE.BLURAY-SharpHD
Disc Size:      35,891,906,323 bytes
Protection:     AACS
Extras:         BD-Java
BDInfo:         0.7.5.5

PLAYLIST REPORT:

Name:                   00002.MPLS
Length:                 1:44:54.287 (h:m:s.ms)
Size:                   26,523,715,584 bytes
Total Bitrate:          33.71 Mbps

VIDEO:

Codec                   Bitrate             Description     
-----                   -------             -----------     
MPEG-4 AVC Video        23469 kbps          1080p / 23.976 fps / 16:9 / High Profile 4.1

AUDIO:

Codec                           Language        Bitrate         Description     
-----                           --------        -------         -----------     
DTS-HD Master Audio             English         2266 kbps       5.1 / 48 kHz /  2266 kbps / 16-bit (DTS Core: 5.1 / 48 kHz /  1509 kbps / 16-bit)
Dolby Digital Audio             Danish          640 kbps        5.1 / 48 kHz /   640 kbps / DN -31dB
Dolby Digital Audio             Finnish         640 kbps        5.1 / 48 kHz /   640 kbps / DN -31dB
DTS-HD Master Audio             German          2270 kbps       5.1 / 48 kHz /  2270 kbps / 16-bit (DTS Core: 5.1 / 48 kHz /  1509 kbps / 16-bit)
Dolby Digital Audio             Norwegian       640 kbps        5.1 / 48 kHz /   640 kbps / DN -31dB
Dolby Digital Audio             Swedish         640 kbps        5.1 / 48 kHz /   640 kbps / DN -31dB
Dolby Digital Audio             Turkish         640 kbps        5.1 / 48 kHz /   640 kbps / DN -31dB

SUBTITLES:

Codec                           Language        Bitrate         Description     
-----                           --------        -------         -----------     
Presentation Graphics           English         45.011 kbps                     
Presentation Graphics           Danish          44.402 kbps                     
Presentation Graphics           Finnish         42.252 kbps                     
Presentation Graphics           German          49.277 kbps                     
Presentation Graphics           Norwegian       35.124 kbps                     
Presentation Graphics           Swedish         36.787 kbps                     
Presentation Graphics           Turkish         40.283 kbps                     

FILES:

Name            Time In         Length          Size            Total Bitrate   
----            -------         ------          ----            -------------   
01023.M2TS      0:00:00.000     0:01:41.017     407,021,568     32,234          
01024.M2TS      0:01:41.017     0:03:59.322     982,050,816     32,828          
01031.M2TS      0:05:40.339     0:00:41.166     169,322,496     32,905          
01026.M2TS      0:06:21.506     1:03:47.323     15,822,483,456  33,073          
01032.M2TS      1:10:08.829     0:00:04.421     17,620,992      31,886          
01028.M2TS      1:10:13.250     0:25:45.627     6,423,681,024   33,248          
01033.M2TS      1:35:58.878     0:00:13.221     55,191,552      33,395          
01030.M2TS      1:36:12.099     0:08:42.188     2,646,343,680   40,542          

CHAPTERS:

Number          Time In         Length          Avg Video Rate  Max 1-Sec Rate  Max 1-Sec Time  Max 5-Sec Rate  Max 5-Sec Time  Max 10Sec Rate  Max 10Sec Time  Avg Frame Size  Max Frame Size  Max Frame Time  
------          -------         ------          --------------  --------------  --------------  --------------  --------------  --------------  --------------  --------------  --------------  --------------  
1               0:00:00.000     0:05:00.133     23,009 kbps     43,580 kbps     00:00:33.491    31,059 kbps     00:00:55.764    29,215 kbps     00:00:52.886    119,939 bytes   778,054 bytes   00:01:34.094    
2               0:05:00.133     0:06:12.622     23,518 kbps     38,079 kbps     00:06:07.575    29,856 kbps     00:09:47.378    28,326 kbps     00:09:46.877    122,614 bytes   743,119 bytes   00:09:58.556    
3               0:11:12.755     0:07:01.337     23,161 kbps     43,091 kbps     00:16:16.600    32,190 kbps     00:15:54.662    30,391 kbps     00:15:53.619    120,748 bytes   665,585 bytes   00:11:35.152    
4               0:18:14.092     0:05:04.429     22,943 kbps     39,356 kbps     00:18:34.279    28,545 kbps     00:19:11.859    27,521 kbps     00:19:11.984    119,615 bytes   609,953 bytes   00:18:14.927    
5               0:23:18.522     0:04:36.067     23,134 kbps     36,379 kbps     00:25:00.206    27,117 kbps     00:24:52.824    25,294 kbps     00:24:52.198    120,609 bytes   634,406 bytes   00:26:19.202    
6               0:27:54.589     0:06:30.890     22,489 kbps     34,425 kbps     00:32:06.090    28,934 kbps     00:27:54.964    26,666 kbps     00:27:54.589    117,249 bytes   741,057 bytes   00:30:58.106    
7               0:34:25.480     0:06:43.861     22,428 kbps     44,153 kbps     00:37:53.145    27,913 kbps     00:37:31.874    27,023 kbps     00:37:35.211    116,927 bytes   732,647 bytes   00:34:49.545    
8               0:41:09.341     0:05:01.092     23,163 kbps     33,647 kbps     00:43:54.298    27,699 kbps     00:44:59.405    26,121 kbps     00:44:54.400    120,760 bytes   706,207 bytes   00:42:20.788    
9               0:46:10.434     0:04:48.663     23,535 kbps     37,575 kbps     00:46:48.513    28,342 kbps     00:46:53.310    26,697 kbps     00:46:48.597    122,700 bytes   773,759 bytes   00:46:49.389    
10              0:50:59.097     0:05:48.765     22,211 kbps     34,499 kbps     00:55:53.641    25,392 kbps     00:56:07.447    24,821 kbps     00:56:02.567    115,800 bytes   623,728 bytes   00:54:21.049    
11              0:56:47.862     0:05:46.012     22,421 kbps     34,188 kbps     01:02:22.905    25,899 kbps     01:02:19.444    24,520 kbps     01:02:14.355    116,891 bytes   612,777 bytes   00:57:03.211    
12              1:02:33.875     0:04:32.897     22,603 kbps     34,446 kbps     01:02:52.768    26,753 kbps     01:02:57.690    25,433 kbps     01:02:52.768    117,844 bytes   666,749 bytes   01:03:06.449    
13              1:07:06.772     0:07:03.422     22,649 kbps     38,575 kbps     01:08:34.276    27,878 kbps     01:09:27.162    25,761 kbps     01:07:28.127    118,080 bytes   594,329 bytes   01:07:07.565    
14              1:14:10.195     0:06:55.623     22,748 kbps     32,029 kbps     01:19:25.927    25,212 kbps     01:18:18.610    24,309 kbps     01:18:14.523    118,600 bytes   656,861 bytes   01:15:34.947    
15              1:21:05.819     0:07:18.771     23,012 kbps     38,736 kbps     01:22:46.836    31,841 kbps     01:27:48.680    30,173 kbps     01:27:46.552    119,972 bytes   675,995 bytes   01:22:47.337    
16              1:28:24.590     0:16:29.697     26,766 kbps     44,294 kbps     01:36:21.984    33,261 kbps     01:31:16.971    31,047 kbps     01:44:35.143    139,551 bytes   735,022 bytes   01:31:15.678    

STREAM DIAGNOSTICS:

File            PID             Type            Codec           Language                Seconds                 Bitrate                 Bytes           Packets         
----            ---             ----            -----           --------                --------------          --------------          -------------   -----           
01023.M2TS      4113 (0x1011)   0x1B            AVC                                     100.934                 22,432                  283,016,759     1,539,602       
01023.M2TS      4352 (0x1100)   0x86            DTS-HD MA       eng (English)           100.934                 2,171                   27,388,688      164,559         
01023.M2TS      4353 (0x1101)   0x81            AC3             dan (Danish)            100.934                 641                     8,081,920       47,355          
01023.M2TS      4354 (0x1102)   0x81            AC3             fin (Finnish)           100.934                 641                     8,081,920       47,355          
01023.M2TS      4355 (0x1103)   0x86            DTS-HD MA       deu (German)            100.934                 2,187                   27,597,660      165,058         
01023.M2TS      4356 (0x1104)   0x81            AC3             nor (Norwegian)         100.934                 641                     8,081,920       47,355          
01023.M2TS      4357 (0x1105)   0x81            AC3             swe (Swedish)           100.934                 641                     8,081,920       47,355          
01023.M2TS      4358 (0x1106)   0x81            AC3             tur (Turkish)           100.934                 641                     8,081,920       47,355          
01023.M2TS      4608 (0x1200)   0x90            PGS             eng (English)           100.934                 19                      244,454         1,416           
01023.M2TS      4609 (0x1201)   0x90            PGS             dan (Danish)            100.934                 21                      258,731         1,503           
01023.M2TS      4610 (0x1202)   0x90            PGS             fin (Finnish)           100.934                 22                      273,591         1,580           
01023.M2TS      4611 (0x1203)   0x90            PGS             deu (German)            100.934                 23                      285,493         1,646           
01023.M2TS      4612 (0x1204)   0x90            PGS             nor (Norwegian)         100.934                 21                      264,153         1,530           
01023.M2TS      4613 (0x1205)   0x90            PGS             swe (Swedish)           100.934                 18                      226,938         1,314           
01023.M2TS      4614 (0x1206)   0x90            PGS             tur (Turkish)           100.934                 21                      260,589         1,510           
01024.M2TS      4113 (0x1011)   0x1B            AVC                                     239.239                 22,648                  677,286,563     3,684,313       
01024.M2TS      4352 (0x1100)   0x86            DTS-HD MA       eng (English)           239.239                 2,251                   67,319,940      404,170         
01024.M2TS      4353 (0x1101)   0x81            AC3             dan (Danish)            239.239                 640                     19,146,240      112,185         
01024.M2TS      4354 (0x1102)   0x81            AC3             fin (Finnish)           239.239                 640                     19,146,240      112,185         
01024.M2TS      4355 (0x1103)   0x86            DTS-HD MA       deu (German)            239.239                 2,249                   67,249,072      403,149         
01024.M2TS      4356 (0x1104)   0x81            AC3             nor (Norwegian)         239.239                 640                     19,146,240      112,185         
01024.M2TS      4357 (0x1105)   0x81            AC3             swe (Swedish)           239.239                 640                     19,146,240      112,185         
01024.M2TS      4358 (0x1106)   0x81            AC3             tur (Turkish)           239.239                 640                     19,146,240      112,185         
01024.M2TS      4608 (0x1200)   0x90            PGS             eng (English)           239.239                 46                      1,373,580       7,947           
01024.M2TS      4609 (0x1201)   0x90            PGS             dan (Danish)            239.239                 46                      1,386,626       8,028           
01024.M2TS      4610 (0x1202)   0x90            PGS             fin (Finnish)           239.239                 45                      1,340,061       7,752           
01024.M2TS      4611 (0x1203)   0x90            PGS             deu (German)            239.239                 53                      1,585,819       9,108           
01024.M2TS      4612 (0x1204)   0x90            PGS             nor (Norwegian)         239.239                 39                      1,152,139       6,748           
01024.M2TS      4613 (0x1205)   0x90            PGS             swe (Swedish)           239.239                 41                      1,229,173       7,080           
01024.M2TS      4614 (0x1206)   0x90            PGS             tur (Turkish)           239.239                 44                      1,318,725       7,592           
01031.M2TS      4113 (0x1011)   0x1B            AVC                                     41.041                  22,883                  117,392,465     638,597         
01031.M2TS      4352 (0x1100)   0x86            DTS-HD MA       eng (English)           41.041                  2,180                   11,181,324      67,621          
01031.M2TS      4353 (0x1101)   0x81            AC3             dan (Danish)            41.041                  642                     3,294,720       19,305          
01031.M2TS      4354 (0x1102)   0x81            AC3             fin (Finnish)           41.041                  642                     3,294,720       19,305          
01031.M2TS      4355 (0x1103)   0x86            DTS-HD MA       deu (German)            41.041                  2,188                   11,225,660      67,754          
01031.M2TS      4356 (0x1104)   0x81            AC3             nor (Norwegian)         41.041                  642                     3,294,720       19,305          
01031.M2TS      4357 (0x1105)   0x81            AC3             swe (Swedish)           41.041                  642                     3,294,720       19,305          
01031.M2TS      4358 (0x1106)   0x81            AC3             tur (Turkish)           41.041                  642                     3,294,720       19,305          
01031.M2TS      4608 (0x1200)   0x90            PGS             eng (English)           41.041                  47                      240,294         1,373           
01031.M2TS      4609 (0x1201)   0x90            PGS             dan (Danish)            41.041                  51                      263,871         1,515           
01031.M2TS      4610 (0x1202)   0x90            PGS             fin (Finnish)           41.041                  52                      268,364         1,543           
01031.M2TS      4611 (0x1203)   0x90            PGS             deu (German)            41.041                  62                      316,432         1,803           
01031.M2TS      4612 (0x1204)   0x90            PGS             nor (Norwegian)         41.041                  40                      207,102         1,195           
01031.M2TS      4613 (0x1205)   0x90            PGS             swe (Swedish)           41.041                  41                      210,453         1,214           
01031.M2TS      4614 (0x1206)   0x90            PGS             tur (Turkish)           41.041                  46                      234,791         1,347           
01026.M2TS      4113 (0x1011)   0x1B            AVC                                     3827.198                22,900                  10,955,137,926  59,592,956      
01026.M2TS      4352 (0x1100)   0x86            DTS-HD MA       eng (English)           3827.198                2,221                   1,062,574,416   6,392,886       
01026.M2TS      4353 (0x1101)   0x81            AC3             dan (Danish)            3827.198                640                     306,186,240     1,794,060       
01026.M2TS      4354 (0x1102)   0x81            AC3             fin (Finnish)           3827.198                640                     306,186,240     1,794,060       
01026.M2TS      4355 (0x1103)   0x86            DTS-HD MA       deu (German)            3827.198                2,222                   1,063,142,940   6,385,480       
01026.M2TS      4356 (0x1104)   0x81            AC3             nor (Norwegian)         3827.198                640                     306,186,240     1,794,060       
01026.M2TS      4357 (0x1105)   0x81            AC3             swe (Swedish)           3827.198                640                     306,186,240     1,794,060       
01026.M2TS      4358 (0x1106)   0x81            AC3             tur (Turkish)           3827.198                640                     306,186,240     1,794,060       
01026.M2TS      4608 (0x1200)   0x90            PGS             eng (English)           3827.198                53                      25,215,411      145,611         
01026.M2TS      4609 (0x1201)   0x90            PGS             dan (Danish)            3827.198                52                      24,646,763      142,576         
01026.M2TS      4610 (0x1202)   0x90            PGS             fin (Finnish)           3827.198                49                      23,390,072      135,700         
01026.M2TS      4611 (0x1203)   0x90            PGS             deu (German)            3827.198                57                      27,288,655      156,909         
01026.M2TS      4612 (0x1204)   0x90            PGS             nor (Norwegian)         3827.198                40                      19,156,039      112,547         
01026.M2TS      4613 (0x1205)   0x90            PGS             swe (Swedish)           3827.198                42                      20,141,512      116,346         
01026.M2TS      4614 (0x1206)   0x90            PGS             tur (Turkish)           3827.198                47                      22,314,208      129,216         
01032.M2TS      4113 (0x1011)   0x1B            AVC                                     4.338                   20,795                  11,275,121      61,340          
01032.M2TS      4352 (0x1100)   0x86            DTS-HD MA       eng (English)           4.338                   2,885                   1,564,084       9,317           
01032.M2TS      4353 (0x1101)   0x81            AC3             dan (Danish)            4.338                   656                     355,840         2,085           
01032.M2TS      4354 (0x1102)   0x81            AC3             fin (Finnish)           4.338                   656                     355,840         2,085           
01032.M2TS      4355 (0x1103)   0x86            DTS-HD MA       deu (German)            4.338                   2,920                   1,583,392       9,417           
01032.M2TS      4356 (0x1104)   0x81            AC3             nor (Norwegian)         4.338                   656                     355,840         2,085           
01032.M2TS      4357 (0x1105)   0x81            AC3             swe (Swedish)           4.338                   656                     355,840         2,085           
01032.M2TS      4358 (0x1106)   0x81            AC3             tur (Turkish)           4.338                   656                     355,840         2,085           
01032.M2TS      4608 (0x1200)   0x90            PGS             eng (English)           4.338                   0                       70              7               
01032.M2TS      4609 (0x1201)   0x90            PGS             dan (Danish)            4.338                   58                      31,681          186             
01032.M2TS      4610 (0x1202)   0x90            PGS             fin (Finnish)           4.338                   67                      36,305          211             
01032.M2TS      4611 (0x1203)   0x90            PGS             deu (German)            4.338                   70                      37,890          219             
01032.M2TS      4612 (0x1204)   0x90            PGS             nor (Norwegian)         4.338                   42                      23,019          139             
01032.M2TS      4613 (0x1205)   0x90            PGS             swe (Swedish)           4.338                   48                      26,208          156             
01032.M2TS      4614 (0x1206)   0x90            PGS             tur (Turkish)           4.338                   62                      33,407          194             
01028.M2TS      4113 (0x1011)   0x1B            AVC                                     1545.544                23,016                  4,446,488,054   24,187,484      
01028.M2TS      4352 (0x1100)   0x86            DTS-HD MA       eng (English)           1545.544                2,282                   440,908,684     2,644,897       
01028.M2TS      4353 (0x1101)   0x81            AC3             dan (Danish)            1545.544                640                     123,650,560     724,515         
01028.M2TS      4354 (0x1102)   0x81            AC3             fin (Finnish)           1545.544                640                     123,650,560     724,515         
01028.M2TS      4355 (0x1103)   0x86            DTS-HD MA       deu (German)            1545.544                2,286                   441,621,124     2,638,896       
01028.M2TS      4356 (0x1104)   0x81            AC3             nor (Norwegian)         1545.544                640                     123,650,560     724,515         
01028.M2TS      4357 (0x1105)   0x81            AC3             swe (Swedish)           1545.544                640                     123,650,560     724,515         
01028.M2TS      4358 (0x1106)   0x81            AC3             tur (Turkish)           1545.544                640                     123,650,560     724,515         
01028.M2TS      4608 (0x1200)   0x90            PGS             eng (English)           1545.544                42                      8,020,654       46,786          
01028.M2TS      4609 (0x1201)   0x90            PGS             dan (Danish)            1545.544                41                      8,016,560       46,777          
01028.M2TS      4610 (0x1202)   0x90            PGS             fin (Finnish)           1545.544                40                      7,687,794       44,980          
01028.M2TS      4611 (0x1203)   0x90            PGS             deu (German)            1545.544                46                      8,928,751       51,725          
01028.M2TS      4612 (0x1204)   0x90            PGS             nor (Norwegian)         1545.544                34                      6,582,296       38,707          
01028.M2TS      4613 (0x1205)   0x90            PGS             swe (Swedish)           1545.544                36                      6,858,701       39,709          
01028.M2TS      4614 (0x1206)   0x90            PGS             tur (Turkish)           1545.544                38                      7,263,799       42,337          
01033.M2TS      4113 (0x1011)   0x1B            AVC                                     13.138                  22,451                  36,869,941      200,573         
01033.M2TS      4352 (0x1100)   0x86            DTS-HD MA       eng (English)           13.138                  2,732                   4,485,872       26,504          
01033.M2TS      4353 (0x1101)   0x81            AC3             dan (Danish)            13.138                  645                     1,059,840       6,210           
01033.M2TS      4354 (0x1102)   0x81            AC3             fin (Finnish)           13.138                  645                     1,059,840       6,210           
01033.M2TS      4355 (0x1103)   0x86            DTS-HD MA       deu (German)            13.138                  2,645                   4,343,624       25,703          
01033.M2TS      4356 (0x1104)   0x81            AC3             nor (Norwegian)         13.138                  645                     1,059,840       6,210           
01033.M2TS      4357 (0x1105)   0x81            AC3             swe (Swedish)           13.138                  645                     1,059,840       6,210           
01033.M2TS      4358 (0x1106)   0x81            AC3             tur (Turkish)           13.138                  645                     1,059,840       6,210           
01033.M2TS      4608 (0x1200)   0x90            PGS             eng (English)           13.138                  55                      90,316          511             
01033.M2TS      4609 (0x1201)   0x90            PGS             dan (Danish)            13.138                  54                      89,444          514             
01033.M2TS      4610 (0x1202)   0x90            PGS             fin (Finnish)           13.138                  42                      68,878          403             
01033.M2TS      4611 (0x1203)   0x90            PGS             deu (German)            13.138                  58                      94,891          544             
01033.M2TS      4612 (0x1204)   0x90            PGS             nor (Norwegian)         13.138                  36                      59,780          353             
01033.M2TS      4613 (0x1205)   0x90            PGS             swe (Swedish)           13.138                  40                      65,468          383             
01033.M2TS      4614 (0x1206)   0x90            PGS             tur (Turkish)           13.138                  50                      81,878          471             
01030.M2TS      4113 (0x1011)   0x1B            AVC                                     522.063                 29,689                  1,937,439,962   10,536,908      
01030.M2TS      4352 (0x1100)   0x86            DTS-HD MA       eng (English)           522.063                 2,560                   167,062,164     987,590         
01030.M2TS      4353 (0x1101)   0x81            AC3             dan (Danish)            522.063                 640                     41,776,640      244,785         
01030.M2TS      4354 (0x1102)   0x81            AC3             fin (Finnish)           522.063                 640                     41,776,640      244,785         
01030.M2TS      4355 (0x1103)   0x86            DTS-HD MA       deu (German)            522.063                 2,597                   169,498,032     1,008,899       
01030.M2TS      4356 (0x1104)   0x81            AC3             nor (Norwegian)         522.063                 640                     41,776,640      244,785         
01030.M2TS      4357 (0x1105)   0x81            AC3             swe (Swedish)           522.063                 640                     41,776,640      244,785         
01030.M2TS      4358 (0x1106)   0x81            AC3             tur (Turkish)           522.063                 640                     41,776,640      244,785         
01030.M2TS      4608 (0x1200)   0x90            PGS             eng (English)           522.063                 4                       228,902         1,292           
01030.M2TS      4609 (0x1201)   0x90            PGS             dan (Danish)            522.063                 4                       241,252         1,367           
01030.M2TS      4610 (0x1202)   0x90            PGS             fin (Finnish)           522.063                 3                       178,146         1,016           
01030.M2TS      4611 (0x1203)   0x90            PGS             deu (German)            522.063                 4                       232,459         1,313           
01030.M2TS      4612 (0x1204)   0x90            PGS             nor (Norwegian)         522.063                 3                       190,414         1,090           
01030.M2TS      4613 (0x1205)   0x90            PGS             swe (Swedish)           522.063                 3                       185,080         1,062           
01030.M2TS      4614 (0x1206)   0x90            PGS             tur (Turkish)           522.063                 3                       186,743         1,067           

[/code]
<---- END FORUMS PASTE ---->

QUICK SUMMARY:

Disc Title: Smurfs 2, The - Blu-ray™
Disc Label: The.Smurfs.2.2013.MULTi.COMPLETE.BLURAY-SharpHD
Disc Size: 35,891,906,323 bytes
Protection: AACS
Playlist: 00002.MPLS
Size: 26,523,715,584 bytes
Length: 1:44:54.287
Total Bitrate: 33.71 Mbps
Video: MPEG-4 AVC Video / 23469 kbps / 1080p / 23.976 fps / 16:9 / High Profile 4.1
Audio: English / DTS-HD Master Audio / 5.1 / 48 kHz /  2266 kbps / 16-bit (DTS Core: 5.1 / 48 kHz /  1509 kbps / 16-bit)
Audio: Danish / Dolby Digital Audio / 5.1 / 48 kHz /   640 kbps / DN -31dB
Audio: Finnish / Dolby Digital Audio / 5.1 / 48 kHz /   640 kbps / DN -31dB
Audio: German / DTS-HD Master Audio / 5.1 / 48 kHz /  2270 kbps / 16-bit (DTS Core: 5.1 / 48 kHz /  1509 kbps / 16-bit)
Audio: Norwegian / Dolby Digital Audio / 5.1 / 48 kHz /   640 kbps / DN -31dB
Audio: Swedish / Dolby Digital Audio / 5.1 / 48 kHz /   640 kbps / DN -31dB
Audio: Turkish / Dolby Digital Audio / 5.1 / 48 kHz /   640 kbps / DN -31dB
Subtitle: English / 45.011 kbps
Subtitle: Danish / 44.402 kbps
Subtitle: Finnish / 42.252 kbps
Subtitle: German / 49.277 kbps
Subtitle: Norwegian / 35.124 kbps
Subtitle: Swedish / 36.787 kbps
Subtitle: Turkish / 40.283 kbps


********************
PLAYLIST: 00003.MPLS
********************

<--- BEGIN FORUMS PASTE --->
[code]
                                                                                                                Total   Video                                             
Title                                                           Codec   Length  Movie Size      Disc Size       Bitrate Bitrate Main Audio Track                          Secondary Audio Track
-----                                                           ------  ------- --------------  --------------  ------- ------- ------------------                        ---------------------
00003.MPLS                                                      AVC     1:44:54 26,518,708,224  35,891,906,323  33.71   23.46   DTS-HD Master 5.1 2266Kbps (48kHz/16-bit) 
[/code]

[code]

DISC INFO:

Disc Title:     Smurfs 2, The - Blu-ray™
Disc Label:     The.Smurfs.2.2013.MULTi.COMPLETE.BLURAY-SharpHD
Disc Size:      35,891,906,323 bytes
Protection:     AACS
Extras:         BD-Java
BDInfo:         0.7.5.5

PLAYLIST REPORT:

Name:                   00003.MPLS
Length:                 1:44:54.287 (h:m:s.ms)
Size:                   26,518,708,224 bytes
Total Bitrate:          33.71 Mbps

VIDEO:

Codec                   Bitrate             Description     
-----                   -------             -----------     
MPEG-4 AVC Video        23463 kbps          1080p / 23.976 fps / 16:9 / High Profile 4.1

AUDIO:

Codec                           Language        Bitrate         Description     
-----                           --------        -------         -----------     
DTS-HD Master Audio             English         2266 kbps       5.1 / 48 kHz /  2266 kbps / 16-bit (DTS Core: 5.1 / 48 kHz /  1509 kbps / 16-bit)
Dolby Digital Audio             Danish          640 kbps        5.1 / 48 kHz /   640 kbps / DN -31dB
Dolby Digital Audio             Finnish         640 kbps        5.1 / 48 kHz /   640 kbps / DN -31dB
DTS-HD Master Audio             German          2270 kbps       5.1 / 48 kHz /  2270 kbps / 16-bit (DTS Core: 5.1 / 48 kHz /  1509 kbps / 16-bit)
Dolby Digital Audio             Norwegian       640 kbps        5.1 / 48 kHz /   640 kbps / DN -31dB
Dolby Digital Audio             Swedish         640 kbps        5.1 / 48 kHz /   640 kbps / DN -31dB
Dolby Digital Audio             Turkish         640 kbps        5.1 / 48 kHz /   640 kbps / DN -31dB

SUBTITLES:

Codec                           Language        Bitrate         Description     
-----                           --------        -------         -----------     
Presentation Graphics           English         45.011 kbps                     
Presentation Graphics           Danish          44.402 kbps                     
Presentation Graphics           Finnish         42.252 kbps                     
Presentation Graphics           German          49.277 kbps                     
Presentation Graphics           Norwegian       35.124 kbps                     
Presentation Graphics           Swedish         36.787 kbps                     
Presentation Graphics           Turkish         40.283 kbps                     

FILES:

Name            Time In         Length          Size            Total Bitrate   
----            -------         ------          ----            -------------   
01039.M2TS      0:00:00.000     0:01:41.017     402,302,976     31,860          
01024.M2TS      0:01:41.017     0:03:59.322     982,050,816     32,828          
01025.M2TS      0:05:40.339     0:00:41.166     169,334,784     32,908          
01026.M2TS      0:06:21.506     1:03:47.323     15,822,483,456  33,073          
01027.M2TS      1:10:08.829     0:00:04.421     17,326,080      31,352          
01028.M2TS      1:10:13.250     0:25:45.627     6,423,681,024   33,248          
01029.M2TS      1:35:58.878     0:00:13.221     55,185,408      33,391          
01030.M2TS      1:36:12.099     0:08:42.188     2,646,343,680   40,542          

CHAPTERS:

Number          Time In         Length          Avg Video Rate  Max 1-Sec Rate  Max 1-Sec Time  Max 5-Sec Rate  Max 5-Sec Time  Max 10Sec Rate  Max 10Sec Time  Avg Frame Size  Max Frame Size  Max Frame Time  
------          -------         ------          --------------  --------------  --------------  --------------  --------------  --------------  --------------  --------------  --------------  --------------  
1               0:00:00.000     0:05:00.133     22,888 kbps     40,642 kbps     00:00:33.491    31,343 kbps     00:00:55.889    29,578 kbps     00:00:52.886    119,312 bytes   752,502 bytes   00:01:32.425    
2               0:05:00.133     0:06:12.622     23,519 kbps     38,429 kbps     00:06:07.575    29,856 kbps     00:09:47.378    28,326 kbps     00:09:46.877    122,616 bytes   743,119 bytes   00:09:58.556    
3               0:11:12.755     0:07:01.337     23,161 kbps     43,091 kbps     00:16:16.600    32,190 kbps     00:15:54.662    30,391 kbps     00:15:53.619    120,748 bytes   665,585 bytes   00:11:35.152    
4               0:18:14.092     0:05:04.429     22,943 kbps     39,356 kbps     00:18:34.279    28,545 kbps     00:19:11.859    27,521 kbps     00:19:11.984    119,615 bytes   609,953 bytes   00:18:14.927    
5               0:23:18.522     0:04:36.067     23,134 kbps     36,379 kbps     00:25:00.206    27,117 kbps     00:24:52.824    25,294 kbps     00:24:52.198    120,609 bytes   634,406 bytes   00:26:19.202    
6               0:27:54.589     0:06:30.890     22,489 kbps     34,425 kbps     00:32:06.090    28,934 kbps     00:27:54.964    26,666 kbps     00:27:54.589    117,249 bytes   741,057 bytes   00:30:58.106    
7               0:34:25.480     0:06:43.861     22,428 kbps     44,153 kbps     00:37:53.145    27,913 kbps     00:37:31.874    27,023 kbps     00:37:35.211    116,927 bytes   732,647 bytes   00:34:49.545    
8               0:41:09.341     0:05:01.092     23,163 kbps     33,647 kbps     00:43:54.298    27,699 kbps     00:44:59.405    26,121 kbps     00:44:54.400    120,760 bytes   706,207 bytes   00:42:20.788    
9               0:46:10.434     0:04:48.663     23,535 kbps     37,575 kbps     00:46:48.513    28,342 kbps     00:46:53.310    26,697 kbps     00:46:48.597    122,700 bytes   773,759 bytes   00:46:49.389    
10              0:50:59.097     0:05:48.765     22,211 kbps     34,499 kbps     00:55:53.641    25,392 kbps     00:56:07.447    24,821 kbps     00:56:02.567    115,800 bytes   623,728 bytes   00:54:21.049    
11              0:56:47.862     0:05:46.012     22,421 kbps     34,188 kbps     01:02:22.905    25,899 kbps     01:02:19.444    24,520 kbps     01:02:14.355    116,891 bytes   612,777 bytes   00:57:03.211    
12              1:02:33.875     0:04:32.897     22,603 kbps     34,446 kbps     01:02:52.768    26,753 kbps     01:02:57.690    25,433 kbps     01:02:52.768    117,844 bytes   666,749 bytes   01:03:06.449    
13              1:07:06.772     0:07:03.422     22,643 kbps     38,575 kbps     01:08:34.276    27,878 kbps     01:09:27.162    25,761 kbps     01:07:28.127    118,052 bytes   594,329 bytes   01:07:07.565    
14              1:14:10.195     0:06:55.623     22,748 kbps     32,029 kbps     01:19:25.927    25,212 kbps     01:18:18.610    24,309 kbps     01:18:14.523    118,600 bytes   656,861 bytes   01:15:34.947    
15              1:21:05.819     0:07:18.771     23,012 kbps     38,736 kbps     01:22:46.836    31,841 kbps     01:27:48.680    30,173 kbps     01:27:46.552    119,972 bytes   675,995 bytes   01:22:47.337    
16              1:28:24.590     0:16:29.697     26,766 kbps     44,294 kbps     01:36:21.984    33,261 kbps     01:31:16.971    31,047 kbps     01:44:35.143    139,551 bytes   735,022 bytes   01:31:15.678    

STREAM DIAGNOSTICS:

File            PID             Type            Codec           Language                Seconds                 Bitrate                 Bytes           Packets         
----            ---             ----            -----           --------                --------------          --------------          -------------   -----           
01039.M2TS      4113 (0x1011)   0x1B            AVC                                     100.892                 22,083                  278,498,290     1,515,024       
01039.M2TS      4352 (0x1100)   0x86            DTS-HD MA       eng (English)           100.892                 2,172                   27,388,688      164,559         
01039.M2TS      4353 (0x1101)   0x81            AC3             dan (Danish)            100.892                 641                     8,081,920       47,355          
01039.M2TS      4354 (0x1102)   0x81            AC3             fin (Finnish)           100.892                 641                     8,081,920       47,355          
01039.M2TS      4355 (0x1103)   0x86            DTS-HD MA       deu (German)            100.892                 2,188                   27,597,660      165,058         
01039.M2TS      4356 (0x1104)   0x81            AC3             nor (Norwegian)         100.892                 641                     8,081,920       47,355          
01039.M2TS      4357 (0x1105)   0x81            AC3             swe (Swedish)           100.892                 641                     8,081,920       47,355          
01039.M2TS      4358 (0x1106)   0x81            AC3             tur (Turkish)           100.892                 641                     8,081,920       47,355          
01039.M2TS      4608 (0x1200)   0x90            PGS             eng (English)           100.892                 19                      244,454         1,416           
01039.M2TS      4609 (0x1201)   0x90            PGS             dan (Danish)            100.892                 21                      258,731         1,503           
01039.M2TS      4610 (0x1202)   0x90            PGS             fin (Finnish)           100.892                 22                      273,591         1,580           
01039.M2TS      4611 (0x1203)   0x90            PGS             deu (German)            100.892                 23                      285,493         1,646           
01039.M2TS      4612 (0x1204)   0x90            PGS             nor (Norwegian)         100.892                 21                      264,153         1,530           
01039.M2TS      4613 (0x1205)   0x90            PGS             swe (Swedish)           100.892                 18                      226,938         1,314           
01039.M2TS      4614 (0x1206)   0x90            PGS             tur (Turkish)           100.892                 21                      260,589         1,510           
01024.M2TS      4113 (0x1011)   0x1B            AVC                                     239.239                 22,648                  677,286,563     3,684,313       
01024.M2TS      4352 (0x1100)   0x86            DTS-HD MA       eng (English)           239.239                 2,251                   67,319,940      404,170         
01024.M2TS      4353 (0x1101)   0x81            AC3             dan (Danish)            239.239                 640                     19,146,240      112,185         
01024.M2TS      4354 (0x1102)   0x81            AC3             fin (Finnish)           239.239                 640                     19,146,240      112,185         
01024.M2TS      4355 (0x1103)   0x86            DTS-HD MA       deu (German)            239.239                 2,249                   67,249,072      403,149         
01024.M2TS      4356 (0x1104)   0x81            AC3             nor (Norwegian)         239.239                 640                     19,146,240      112,185         
01024.M2TS      4357 (0x1105)   0x81            AC3             swe (Swedish)           239.239                 640                     19,146,240      112,185         
01024.M2TS      4358 (0x1106)   0x81            AC3             tur (Turkish)           239.239                 640                     19,146,240      112,185         
01024.M2TS      4608 (0x1200)   0x90            PGS             eng (English)           239.239                 46                      1,373,580       7,947           
01024.M2TS      4609 (0x1201)   0x90            PGS             dan (Danish)            239.239                 46                      1,386,626       8,028           
01024.M2TS      4610 (0x1202)   0x90            PGS             fin (Finnish)           239.239                 45                      1,340,061       7,752           
01024.M2TS      4611 (0x1203)   0x90            PGS             deu (German)            239.239                 53                      1,585,819       9,108           
01024.M2TS      4612 (0x1204)   0x90            PGS             nor (Norwegian)         239.239                 39                      1,152,139       6,748           
01024.M2TS      4613 (0x1205)   0x90            PGS             swe (Swedish)           239.239                 41                      1,229,173       7,080           
01024.M2TS      4614 (0x1206)   0x90            PGS             tur (Turkish)           239.239                 44                      1,318,725       7,592           
01025.M2TS      4113 (0x1011)   0x1B            AVC                                     41.041                  22,886                  117,409,959     638,683         
01025.M2TS      4352 (0x1100)   0x86            DTS-HD MA       eng (English)           41.041                  2,180                   11,181,324      67,621          
01025.M2TS      4353 (0x1101)   0x81            AC3             dan (Danish)            41.041                  642                     3,294,720       19,305          
01025.M2TS      4354 (0x1102)   0x81            AC3             fin (Finnish)           41.041                  642                     3,294,720       19,305          
01025.M2TS      4355 (0x1103)   0x86            DTS-HD MA       deu (German)            41.041                  2,188                   11,225,660      67,754          
01025.M2TS      4356 (0x1104)   0x81            AC3             nor (Norwegian)         41.041                  642                     3,294,720       19,305          
01025.M2TS      4357 (0x1105)   0x81            AC3             swe (Swedish)           41.041                  642                     3,294,720       19,305          
01025.M2TS      4358 (0x1106)   0x81            AC3             tur (Turkish)           41.041                  642                     3,294,720       19,305          
01025.M2TS      4608 (0x1200)   0x90            PGS             eng (English)           41.041                  47                      240,294         1,373           
01025.M2TS      4609 (0x1201)   0x90            PGS             dan (Danish)            41.041                  51                      263,871         1,515           
01025.M2TS      4610 (0x1202)   0x90            PGS             fin (Finnish)           41.041                  52                      268,364         1,543           
01025.M2TS      4611 (0x1203)   0x90            PGS             deu (German)            41.041                  62                      316,432         1,803           
01025.M2TS      4612 (0x1204)   0x90            PGS             nor (Norwegian)         41.041                  40                      207,102         1,195           
01025.M2TS      4613 (0x1205)   0x90            PGS             swe (Swedish)           41.041                  41                      210,453         1,214           
01025.M2TS      4614 (0x1206)   0x90            PGS             tur (Turkish)           41.041                  46                      234,791         1,347           
01026.M2TS      4113 (0x1011)   0x1B            AVC                                     3827.198                22,900                  10,955,137,926  59,592,956      
01026.M2TS      4352 (0x1100)   0x86            DTS-HD MA       eng (English)           3827.198                2,221                   1,062,574,416   6,392,886       
01026.M2TS      4353 (0x1101)   0x81            AC3             dan (Danish)            3827.198                640                     306,186,240     1,794,060       
01026.M2TS      4354 (0x1102)   0x81            AC3             fin (Finnish)           3827.198                640                     306,186,240     1,794,060       
01026.M2TS      4355 (0x1103)   0x86            DTS-HD MA       deu (German)            3827.198                2,222                   1,063,142,940   6,385,480       
01026.M2TS      4356 (0x1104)   0x81            AC3             nor (Norwegian)         3827.198                640                     306,186,240     1,794,060       
01026.M2TS      4357 (0x1105)   0x81            AC3             swe (Swedish)           3827.198                640                     306,186,240     1,794,060       
01026.M2TS      4358 (0x1106)   0x81            AC3             tur (Turkish)           3827.198                640                     306,186,240     1,794,060       
01026.M2TS      4608 (0x1200)   0x90            PGS             eng (English)           3827.198                53                      25,215,411      145,611         
01026.M2TS      4609 (0x1201)   0x90            PGS             dan (Danish)            3827.198                52                      24,646,763      142,576         
01026.M2TS      4610 (0x1202)   0x90            PGS             fin (Finnish)           3827.198                49                      23,390,072      135,700         
01026.M2TS      4611 (0x1203)   0x90            PGS             deu (German)            3827.198                57                      27,288,655      156,909         
01026.M2TS      4612 (0x1204)   0x90            PGS             nor (Norwegian)         3827.198                40                      19,156,039      112,547         
01026.M2TS      4613 (0x1205)   0x90            PGS             swe (Swedish)           3827.198                42                      20,141,512      116,346         
01026.M2TS      4614 (0x1206)   0x90            PGS             tur (Turkish)           3827.198                47                      22,314,208      129,216         
01027.M2TS      4113 (0x1011)   0x1B            AVC                                     4.338                   20,273                  10,992,232      59,802          
01027.M2TS      4352 (0x1100)   0x86            DTS-HD MA       eng (English)           4.338                   2,885                   1,564,084       9,317           
01027.M2TS      4353 (0x1101)   0x81            AC3             dan (Danish)            4.338                   656                     355,840         2,085           
01027.M2TS      4354 (0x1102)   0x81            AC3             fin (Finnish)           4.338                   656                     355,840         2,085           
01027.M2TS      4355 (0x1103)   0x86            DTS-HD MA       deu (German)            4.338                   2,920                   1,583,392       9,417           
01027.M2TS      4356 (0x1104)   0x81            AC3             nor (Norwegian)         4.338                   656                     355,840         2,085           
01027.M2TS      4357 (0x1105)   0x81            AC3             swe (Swedish)           4.338                   656                     355,840         2,085           
01027.M2TS      4358 (0x1106)   0x81            AC3             tur (Turkish)           4.338                   656                     355,840         2,085           
01027.M2TS      4608 (0x1200)   0x90            PGS             eng (English)           4.338                   0                       70              7               
01027.M2TS      4609 (0x1201)   0x90            PGS             dan (Danish)            4.338                   58                      31,681          186             
01027.M2TS      4610 (0x1202)   0x90            PGS             fin (Finnish)           4.338                   67                      36,305          211             
01027.M2TS      4611 (0x1203)   0x90            PGS             deu (German)            4.338                   70                      37,890          219             
01027.M2TS      4612 (0x1204)   0x90            PGS             nor (Norwegian)         4.338                   42                      22,989          136             
01027.M2TS      4613 (0x1205)   0x90            PGS             swe (Swedish)           4.338                   48                      26,208          156             
01027.M2TS      4614 (0x1206)   0x90            PGS             tur (Turkish)           4.338                   62                      33,407          194             
01028.M2TS      4113 (0x1011)   0x1B            AVC                                     1545.544                23,016                  4,446,488,054   24,187,484      
01028.M2TS      4352 (0x1100)   0x86            DTS-HD MA       eng (English)           1545.544                2,282                   440,908,684     2,644,897       
01028.M2TS      4353 (0x1101)   0x81            AC3             dan (Danish)            1545.544                640                     123,650,560     724,515         
01028.M2TS      4354 (0x1102)   0x81            AC3             fin (Finnish)           1545.544                640                     123,650,560     724,515         
01028.M2TS      4355 (0x1103)   0x86            DTS-HD MA       deu (German)            1545.544                2,286                   441,621,124     2,638,896       
01028.M2TS      4356 (0x1104)   0x81            AC3             nor (Norwegian)         1545.544                640                     123,650,560     724,515         
01028.M2TS      4357 (0x1105)   0x81            AC3             swe (Swedish)           1545.544                640                     123,650,560     724,515         
01028.M2TS      4358 (0x1106)   0x81            AC3             tur (Turkish)           1545.544                640                     123,650,560     724,515         
01028.M2TS      4608 (0x1200)   0x90            PGS             eng (English)           1545.544                42                      8,020,654       46,786          
01028.M2TS      4609 (0x1201)   0x90            PGS             dan (Danish)            1545.544                41                      8,016,560       46,777          
01028.M2TS      4610 (0x1202)   0x90            PGS             fin (Finnish)           1545.544                40                      7,687,794       44,980          
01028.M2TS      4611 (0x1203)   0x90            PGS             deu (German)            1545.544                46                      8,928,751       51,725          
01028.M2TS      4612 (0x1204)   0x90            PGS             nor (Norwegian)         1545.544                34                      6,582,296       38,707          
01028.M2TS      4613 (0x1205)   0x90            PGS             swe (Swedish)           1545.544                36                      6,858,701       39,709          
01028.M2TS      4614 (0x1206)   0x90            PGS             tur (Turkish)           1545.544                38                      7,263,799       42,337          
01029.M2TS      4113 (0x1011)   0x1B            AVC                                     13.138                  22,447                  36,864,610      200,536         
01029.M2TS      4352 (0x1100)   0x86            DTS-HD MA       eng (English)           13.138                  2,732                   4,485,872       26,504          
01029.M2TS      4353 (0x1101)   0x81            AC3             dan (Danish)            13.138                  645                     1,059,840       6,210           
01029.M2TS      4354 (0x1102)   0x81            AC3             fin (Finnish)           13.138                  645                     1,059,840       6,210           
01029.M2TS      4355 (0x1103)   0x86            DTS-HD MA       deu (German)            13.138                  2,645                   4,343,624       25,703          
01029.M2TS      4356 (0x1104)   0x81            AC3             nor (Norwegian)         13.138                  645                     1,059,840       6,210           
01029.M2TS      4357 (0x1105)   0x81            AC3             swe (Swedish)           13.138                  645                     1,059,840       6,210           
01029.M2TS      4358 (0x1106)   0x81            AC3             tur (Turkish)           13.138                  645                     1,059,840       6,210           
01029.M2TS      4608 (0x1200)   0x90            PGS             eng (English)           13.138                  55                      90,316          511             
01029.M2TS      4609 (0x1201)   0x90            PGS             dan (Danish)            13.138                  54                      89,444          514             
01029.M2TS      4610 (0x1202)   0x90            PGS             fin (Finnish)           13.138                  42                      68,878          403             
01029.M2TS      4611 (0x1203)   0x90            PGS             deu (German)            13.138                  58                      94,891          544             
01029.M2TS      4612 (0x1204)   0x90            PGS             nor (Norwegian)         13.138                  36                      59,780          353             
01029.M2TS      4613 (0x1205)   0x90            PGS             swe (Swedish)           13.138                  40                      65,468          383             
01029.M2TS      4614 (0x1206)   0x90            PGS             tur (Turkish)           13.138                  50                      81,878          471             
01030.M2TS      4113 (0x1011)   0x1B            AVC                                     522.063                 29,689                  1,937,439,962   10,536,908      
01030.M2TS      4352 (0x1100)   0x86            DTS-HD MA       eng (English)           522.063                 2,560                   167,062,164     987,590         
01030.M2TS      4353 (0x1101)   0x81            AC3             dan (Danish)            522.063                 640                     41,776,640      244,785         
01030.M2TS      4354 (0x1102)   0x81            AC3             fin (Finnish)           522.063                 640                     41,776,640      244,785         
01030.M2TS      4355 (0x1103)   0x86            DTS-HD MA       deu (German)            522.063                 2,597                   169,498,032     1,008,899       
01030.M2TS      4356 (0x1104)   0x81            AC3             nor (Norwegian)         522.063                 640                     41,776,640      244,785         
01030.M2TS      4357 (0x1105)   0x81            AC3             swe (Swedish)           522.063                 640                     41,776,640      244,785         
01030.M2TS      4358 (0x1106)   0x81            AC3             tur (Turkish)           522.063                 640                     41,776,640      244,785         
01030.M2TS      4608 (0x1200)   0x90            PGS             eng (English)           522.063                 4                       228,902         1,292           
01030.M2TS      4609 (0x1201)   0x90            PGS             dan (Danish)            522.063                 4                       241,252         1,367           
01030.M2TS      4610 (0x1202)   0x90            PGS             fin (Finnish)           522.063                 3                       178,146         1,016           
01030.M2TS      4611 (0x1203)   0x90            PGS             deu (German)            522.063                 4                       232,459         1,313           
01030.M2TS      4612 (0x1204)   0x90            PGS             nor (Norwegian)         522.063                 3                       190,414         1,090           
01030.M2TS      4613 (0x1205)   0x90            PGS             swe (Swedish)           522.063                 3                       185,080         1,062           
01030.M2TS      4614 (0x1206)   0x90            PGS             tur (Turkish)           522.063                 3                       186,743         1,067           

[/code]
<---- END FORUMS PASTE ---->

QUICK SUMMARY:

Disc Title: Smurfs 2, The - Blu-ray™
Disc Label: The.Smurfs.2.2013.MULTi.COMPLETE.BLURAY-SharpHD
Disc Size: 35,891,906,323 bytes
Protection: AACS
Playlist: 00003.MPLS
Size: 26,518,708,224 bytes
Length: 1:44:54.287
Total Bitrate: 33.71 Mbps
Video: MPEG-4 AVC Video / 23463 kbps / 1080p / 23.976 fps / 16:9 / High Profile 4.1
Audio: English / DTS-HD Master Audio / 5.1 / 48 kHz /  2266 kbps / 16-bit (DTS Core: 5.1 / 48 kHz /  1509 kbps / 16-bit)
Audio: Danish / Dolby Digital Audio / 5.1 / 48 kHz /   640 kbps / DN -31dB
Audio: Finnish / Dolby Digital Audio / 5.1 / 48 kHz /   640 kbps / DN -31dB
Audio: German / DTS-HD Master Audio / 5.1 / 48 kHz /  2270 kbps / 16-bit (DTS Core: 5.1 / 48 kHz /  1509 kbps / 16-bit)
Audio: Norwegian / Dolby Digital Audio / 5.1 / 48 kHz /   640 kbps / DN -31dB
Audio: Swedish / Dolby Digital Audio / 5.1 / 48 kHz /   640 kbps / DN -31dB
Audio: Turkish / Dolby Digital Audio / 5.1 / 48 kHz /   640 kbps / DN -31dB
Subtitle: English / 45.011 kbps
Subtitle: Danish / 44.402 kbps
Subtitle: Finnish / 42.252 kbps
Subtitle: German / 49.277 kbps
Subtitle: Norwegian / 35.124 kbps
Subtitle: Swedish / 36.787 kbps
Subtitle: Turkish / 40.283 kbps

